<svg version="1.1" class="globalLogo-container-svg" xmlns="http://www.w3.org/2000/svg" xmlns:xlink="http://www.w3.org/1999/xlink" x="0px" y="0px" viewBox="0 0 301 32.1" style="enable-background:new 0 0 301 32.1;" xml:space="preserve"> <style type="text/css"> .st0{fill:#FFFFFF;} </style> <title>Nerdery | Digital Business Consulting</title> <g> <g> <polygon points="0,0 0,32 5.9,32 5.9,11.6 37.3,32.1 37.3,0.2 31.4,0.2 31.4,20.5 		"></polygon> <polygon points="45.2,0.2 45.2,32 79,32 79,26.1 51.1,26.1 51.1,19 71.6,19 71.6,13.1 51.1,13.1 51.1,6 79,6 79,0.2 "></polygon> <path d="M124.3,10.9c0-5.9-4.8-10.7-10.7-10.7H86.9V32h5.9V21.6h17.6l7.2,10.4h7.1l-7.6-11 C121.3,19.5,124.3,15.5,124.3,10.9 M118.4,10.9c0,2.7-2.2,4.8-4.8,4.8H92.8V6h20.8C116.2,6,118.4,8.2,118.4,10.9"></path> <polygon points="178.4,32 212.1,32 212.1,26.1 184.2,26.1 184.2,19 204.7,19 204.7,13.1 184.2,13.1 184.2,6 212.1,6 212.1,0.2 178.4,0.2 		"></polygon> <path d="M257.2,10.9c0-5.9-4.8-10.7-10.7-10.7h-26.7V32h5.9V21.6h17.6l7.2,10.4h7.1L250,21 C254.3,19.5,257.2,15.5,257.2,10.9 M251.4,10.9c0,2.7-2.2,4.8-4.8,4.8h-20.8V6h20.8C249.2,6,251.4,8.2,251.4,10.9"></path> <path d="M155.7,0.2h-23.3V32h23.3c8.8,0,15.9-7.1,15.9-15.9C171.5,7.3,164.4,0.2,155.7,0.2 M165.7,16.1 c0,5.5-4.5,10-10,10h-17.4V6h17.4C161.2,6,165.7,10.5,165.7,16.1"></path> <polygon points="293,0.2 279.8,14.4 266.6,0.2 258.6,0.2 276.9,19.8 276.9,32 282.7,32 282.7,19.8 301,0.2 		"></polygon> </g> <path d="M296.6,28.2h0.4c0.5,0,0.9-0.2,0.9-0.6c0-0.3-0.3-0.6-0.8-0.6c-0.2,0-0.4,0-0.5,0V28.2z M296.5,30.3h-0.9v-3.8 c0.3-0.1,0.8-0.1,1.4-0.1c0.7,0,1,0.1,1.3,0.3c0.2,0.2,0.4,0.5,0.4,0.8c0,0.4-0.3,0.7-0.8,0.9v0c0.4,0.1,0.6,0.4,0.7,0.9 c0.1,0.6,0.2,0.8,0.3,0.9H298c-0.1-0.1-0.2-0.5-0.3-0.9c-0.1-0.4-0.3-0.6-0.8-0.6h-0.4V30.3z M294.2,28.3c0,1.7,1.2,3,2.9,3 c1.6,0,2.9-1.3,2.9-3c0-1.7-1.2-3-2.9-3C295.5,25.3,294.2,26.7,294.2,28.3 M301,28.3c0,2.1-1.7,3.8-3.8,3.8c-2.2,0-3.9-1.7-3.9-3.8 c0-2.1,1.7-3.8,3.9-3.8C299.3,24.6,301,26.3,301,28.3"></path> </g> </svg>